HIERARCHY
ROOT Hips
{
 OFFSET 0.000000 0.000000 0.000000
 CHANNELS 6 Xposition Yposition Zposition Yrotation Xrotation Zrotation
 JOINT Chest
 {
  OFFSET 0.000000 9.581000 -0.001100
  CHANNELS 3 Yrotation Xrotation Zrotation
  JOINT Chest2
  {
   OFFSET 0.000000 9.561100 0.002200
   CHANNELS 3 Yrotation Xrotation Zrotation
   JOINT Chest3
   {
    OFFSET 0.000000 9.521100 0.000000
    CHANNELS 3 Yrotation Xrotation Zrotation
    JOINT Chest4
    {
     OFFSET 0.000000 9.511400 0.000000
     CHANNELS 3 Yrotation Xrotation Zrotation
     JOINT Neck
     {
      OFFSET 0.000000 14.375100 0.000000
      CHANNELS 3 Yrotation Xrotation Zrotation
      JOINT Head
      {
       OFFSET 0.000000 8.901200 0.004600
       CHANNELS 3 Yrotation Xrotation Zrotation
       End Site
       {
        OFFSET 0.000000 16.962200 0.002400
       }
      }
     }
     JOINT RightCollar
     {
      OFFSET -2.920100 9.518800 0.000000
      CHANNELS 3 Yrotation Xrotation Zrotation
      JOINT RightShoulder
      {
       OFFSET -13.664500 0.000000 0.000000
       CHANNELS 3 Yrotation Xrotation Zrotation
       JOINT RightElbow
       {
        OFFSET 0.000000 -29.999200 0.000000
        CHANNELS 3 Yrotation Xrotation Zrotation
        JOINT RightWrist
        {
         OFFSET 0.000000 -24.253600 0.000000
         CHANNELS 3 Yrotation Xrotation Zrotation
         End Site
         {
          OFFSET 0.000000 -17.918900 0.000000
         }
        }
       }
      }
     }
     JOINT LeftCollar
     {
      OFFSET 2.920100 9.518800 0.000000
      CHANNELS 3 Yrotation Xrotation Zrotation
      JOINT LeftShoulder
      {
       OFFSET 13.664500 0.000000 0.000000
       CHANNELS 3 Yrotation Xrotation Zrotation
       JOINT LeftElbow
       {
        OFFSET 0.000000 -29.999200 0.000000
        CHANNELS 3 Yrotation Xrotation Zrotation
        JOINT LeftWrist
        {
         OFFSET 0.000000 -24.253600 0.000000
         CHANNELS 3 Yrotation Xrotation Zrotation
         End Site
         {
          OFFSET 0.000000 -17.918900 0.000000
         }
        }
       }
      }
     }
    }
   }
  }
 }
 JOINT RightHip
 {
  OFFSET -7.797300 0.005300 0.000500
  CHANNELS 3 Yrotation Xrotation Zrotation
  JOINT RightKnee
  {
   OFFSET 0.000000 -40.663400 -0.000500
   CHANNELS 3 Yrotation Xrotation Zrotation
   JOINT RightAnkle
   {
    OFFSET 0.000000 -39.523700 -0.000900
    CHANNELS 3 Yrotation Xrotation Zrotation
    JOINT RightToe
    {
     OFFSET 0.000000 -6.418000 14.485300
     CHANNELS 3 Yrotation Xrotation Zrotation
     End Site
     {
      OFFSET 0.000000 -1.465200 6.326400
     }
    }
   }
  }
 }
 JOINT LeftHip
 {
  OFFSET 7.797300 0.005300 0.000500
  CHANNELS 3 Yrotation Xrotation Zrotation
  JOINT LeftKnee
  {
   OFFSET 0.000000 -40.663400 -0.000500
   CHANNELS 3 Yrotation Xrotation Zrotation
   JOINT LeftAnkle
   {
    OFFSET 0.000000 -39.523700 -0.000900
    CHANNELS 3 Yrotation Xrotation Zrotation
    JOINT LeftToe
    {
     OFFSET 0.000000 -6.418000 14.485300
     CHANNELS 3 Yrotation Xrotation Zrotation
     End Site
     {
      OFFSET 0.000000 -1.465200 6.326400
     }
    }
   }
  }
 }
}
MOTION
Frames: 12
Frame Time: 0.008333
-13.412125 126.908451 32.401238 -160.323311 -50.823484 -3.477436 -5.911863 28.240055 -1.715053 -0.972054 5.212847 -0.080531 -1.572859 8.204917 -0.172893 -4.578366 22.755230 -1.094448 4.141628 16.532461 1.758464 3.987529 -8.286287 0.917594 4.404195 1.363558 0.227284 6.129424 -11.004192 -11.467568 -75.708760 -61.827294 129.325026 15.693455 26.121829 18.379011 -10.085060 -6.320368 -3.106306 -21.088420 -28.927982 14.301864 56.898080 -44.110277 -119.545692 1.348594 -0.525331 -11.050463 -6.941146 -22.256559 -10.878968 -8.672442 78.044568 -9.964563 9.906820 -12.186738 4.039497 -0.005614 -0.001558 -0.002487 4.456150 6.050403 -1.306405 128.825812 65.034632 147.263020 10.578987 11.203248 3.698259 -0.005540 0.002018 -0.002455
-13.411604 126.908181 32.400577 -160.322659 -50.813042 -3.473636 -5.867261 28.213025 -1.691986 -0.988127 5.214219 -0.083616 -1.591611 8.214804 -0.172176 -4.565129 22.743857 -1.094215 4.128954 16.523763 1.770407 3.956207 -8.334585 0.947566 4.402763 1.362627 0.227239 6.148676 -11.014441 -11.470818 -75.693648 -61.818012 129.290135 15.698959 26.125682 18.387609 -10.084434 -6.315659 -3.107458 -21.084761 -28.932795 14.301196 56.881716 -44.104705 -119.534668 1.373407 -0.531780 -11.019212 -6.926708 -22.256276 -10.872366 -8.697385 78.068432 -9.977516 9.891126 -12.326690 4.017609 -0.009086 -0.005494 -0.004025 4.457372 6.042271 -1.316133 128.813649 65.030778 147.246445 10.630718 11.223373 3.675121 -0.001169 0.006030 -0.000518
-13.411834 126.908925 32.399234 -160.307769 -50.809874 -3.477943 -5.853477 28.201166 -1.687645 -0.990906 5.210490 -0.083157 -1.580634 8.202257 -0.170127 -4.542826 22.721165 -1.094495 4.091870 16.544460 1.799923 3.922840 -8.387360 0.975329 4.387315 1.373797 0.241576 6.129741 -10.988485 -11.459535 -75.703487 -61.815818 129.296779 15.709886 26.129011 18.401921 -10.091059 -6.295741 -3.097472 -21.103725 -28.914592 14.287762 56.860177 -44.096339 -119.521567 1.386431 -0.539625 -10.994035 -6.885100 -22.243217 -10.851588 -8.746794 78.120040 -10.019024 9.838084 -12.484329 4.016695 -0.003963 -0.002777 -0.001756 4.448098 6.040508 -1.325618 128.810449 65.028397 147.241613 10.662894 11.245088 3.639195 0.002118 0.008669 0.000938
-13.412762 126.908146 32.399329 -160.292015 -50.794962 -3.476232 -5.844881 28.177771 -1.690507 -1.006435 5.214364 -0.082403 -1.524412 8.150816 -0.175226 -4.550780 22.729619 -1.088570 4.058653 16.532796 1.830202 3.886648 -8.414616 1.003522 4.354003 1.410114 0.264833 6.182884 -11.005660 -11.480425 -75.701307 -61.801075 129.266573 15.706187 26.129977 18.387782 -10.115013 -6.258497 -3.080056 -21.115633 -28.904743 14.276984 56.851520 -44.094705 -119.515485 1.391390 -0.543724 -10.986693 -6.884581 -22.254652 -10.853576 -8.734667 78.157660 -10.013358 9.835703 -12.617977 3.997272 -0.007961 -0.003947 -0.003527 4.440134 6.029884 -1.347191 128.794003 65.019010 147.223256 10.654547 11.209262 3.727056 0.006196 -0.004373 0.002745
-13.413453 126.907307 32.399385 -160.278420 -50.779212 -3.474526 -5.834495 28.155812 -1.690483 -1.003405 5.205142 -0.083972 -1.519092 8.142506 -0.173659 -4.540082 22.719156 -1.087262 4.030924 16.506858 1.849805 3.853048 -8.447616 1.029449 4.351226 1.417500 0.273869 6.181968 -10.988290 -11.477029 -75.710525 -61.795749 129.255055 15.747897 26.129343 18.419680 -10.126724 -6.233434 -3.066723 -21.116074 -28.907649 14.272170 56.827556 -44.079786 -119.509590 1.414261 -0.544483 -10.957317 -6.863711 -22.262342 -10.844570 -8.829689 78.190070 -10.103497 9.821904 -12.751399 3.982268 -0.006919 -0.004429 -0.003065 4.433976 6.024639 -1.373981 128.774032 65.015153 147.205557 10.647836 11.166868 3.829280 0.008716 -0.019528 0.003861
-13.413087 126.908048 32.397811 -160.278229 -50.775331 -3.471978 -5.809205 28.148593 -1.678170 -0.974819 5.184935 -0.083370 -1.539266 8.145437 -0.171311 -4.540480 22.716262 -1.086262 4.008368 16.467609 1.863359 3.820920 -8.481876 1.048609 4.351932 1.421037 0.275942 6.182486 -10.973921 -11.473481 -75.718744 -61.795505 129.262240 15.745867 26.127806 18.409848 -10.130474 -6.218742 -3.058097 -21.117682 -28.911412 14.278195 56.785409 -44.051842 -119.497273 1.482696 -0.549813 -10.899328 -6.841987 -22.258893 -10.826508 -8.919715 78.219604 -10.189330 9.802683 -12.876464 3.966269 -0.008257 -0.005672 -0.003658 4.432788 6.021990 -1.379815 128.789965 65.014744 147.219102 10.699099 11.202198 3.744067 0.007116 -0.009028 0.003152
-13.412589 126.909539 32.395578 -160.286179 -50.777149 -3.465421 -5.790505 28.149089 -1.670485 -0.966146 5.179184 -0.081719 -1.528066 8.132799 -0.169606 -4.562177 22.728368 -1.086709 4.003917 16.412757 1.863752 3.786782 -8.520321 1.065061 4.386870 1.396415 0.264508 6.164661 -10.946147 -11.465485 -75.720074 -61.805292 129.279786 15.726789 26.121885 18.382582 -10.117591 -6.221002 -3.052980 -21.113663 -28.917561 14.276419 56.729608 -44.021193 -119.475432 1.489793 -0.561732 -10.885236 -6.815598 -22.251420 -10.809367 -9.003702 78.246863 -10.268564 9.791801 -12.991779 3.949513 -0.009664 -0.006823 -0.004281 4.436085 6.022387 -1.382743 128.796361 65.012721 147.225445 10.778535 11.287226 3.544293 -0.000485 0.018529 -0.000215
-13.412621 126.909269 32.395034 -160.276737 -50.764658 -3.466129 -5.785962 28.135792 -1.667654 -0.971685 5.177899 -0.082625 -1.504091 8.116924 -0.167928 -4.547829 22.716997 -1.078367 3.971882 16.379054 1.872893 3.765090 -8.508324 1.075641 4.370419 1.409024 0.269905 6.169002 -10.931255 -11.467307 -75.736232 -61.800464 129.272281 15.737594 26.120655 18.403201 -10.148346 -6.194047 -3.046660 -21.074891 -28.934532 14.278473 56.641818 -43.975937 -119.456783 1.546832 -0.570725 -10.843734 -6.800301 -22.257678 -10.801975 -9.069916 78.273055 -10.331410 9.800486 -13.106262 3.929512 -0.008906 -0.005294 -0.003946 4.427373 6.013878 -1.394446 128.796489 65.003825 147.222921 10.801843 11.290047 3.498543 -0.004739 0.029035 -0.002100
-13.412848 126.908995 32.394606 -160.257783 -50.751989 -3.472924 -5.778020 28.118749 -1.660892 -0.968275 5.171945 -0.081954 -1.513848 8.119473 -0.169108 -4.500545 22.686315 -1.072707 3.927868 16.308088 1.879613 3.740002 -8.451773 1.100592 4.338531 1.430998 0.286947 6.166699 -10.916093 -11.466114 -75.746805 -61.805402 129.282064 15.737380 26.117072 18.405040 -10.197017 -6.154827 -3.031153 -21.074133 -28.934649 14.273267 56.539851 -43.933498 -119.401873 1.568659 -0.597127 -10.793133 -6.793878 -22.272154 -10.795503 -9.143987 78.308134 -10.405258 9.801891 -13.187696 3.920649 -0.007836 0.002211 -0.003472 4.413596 6.009434 -1.402768 128.794336 65.000371 147.217908 10.753056 11.206263 3.649732 0.000157 0.009275 0.000069
-13.414358 126.906246 32.396745 -160.227461 -50.720508 -3.476190 -5.781319 28.087516 -1.667522 -0.940796 5.163937 -0.076702 -1.549512 8.120443 -0.170460 -4.495081 22.682299 -1.070892 3.913980 16.243098 1.875360 3.684738 -8.563411 1.111133 4.343116 1.425908 0.290561 6.150704 -10.901274 -11.460597 -75.734102 -61.811393 129.288625 15.732165 26.111287 18.387726 -10.194072 -6.149693 -3.020786 -21.068363 -28.935613 14.269155 56.456643 -43.889398 -119.375110 1.589415 -0.613222 -10.746510 -6.792743 -22.296208 -10.803021 -9.210036 78.336156 -10.467591 9.806988 -13.329418 3.889143 -0.005370 0.001876 -0.002379 4.390329 5.987411 -1.423735 128.795187 64.997595 147.215121 10.686276 11.103460 3.836655 0.005952 -0.012704 0.002637
-13.415215 126.905038 32.397554 -160.213167 -50.701862 -3.473549 -5.772897 28.069825 -1.665281 -0.945002 5.161912 -0.076584 -1.539444 8.112454 -0.169734 -4.486268 22.676676 -1.067130 3.886656 16.197441 1.876379 3.646479 -8.643362 1.116301 4.329016 1.425226 0.298781 6.158747 -10.882358 -11.464362 -75.748015 -61.812222 129.303286 15.726370 26.110311 18.367588 -10.211455 -6.141005 -3.007809 -21.051043 -28.938042 14.267992 56.412355 -43.856628 -119.375008 1.604814 -0.618072 -10.724432 -6.774720 -22.305899 -10.806432 -9.291084 78.364068 -10.534752 9.803662 -13.474162 3.856265 -0.000900 -0.000352 -0.000399 4.378924 5.979165 -1.437053 128.788533 64.999757 147.205474 10.627678 11.020910 3.990381 0.009195 -0.034597 0.004072
-13.416726 126.902973 32.399455 -160.185960 -50.677285 -3.475291 -5.776815 28.048798 -1.667993 -0.960573 5.158065 -0.080282 -1.488460 8.101761 -0.162259 -4.476527 22.669570 -1.059249 3.836253 16.156583 1.881499 3.617823 -8.697688 1.119227 4.284867 1.429078 0.316285 6.189410 -10.861538 -11.479200 -75.774122 -61.808533 129.309312 15.724722 26.109503 18.361198 -10.250151 -6.132610 -2.981659 -21.055895 -28.929636 14.249423 56.382688 -43.840333 -119.365081 1.666011 -0.611403 -10.676705 -6.783718 -22.330328 -10.821225 -9.278863 78.398677 -10.518761 9.791201 -13.598375 3.824088 -0.001671 -0.000370 -0.000740 4.357606 5.961768 -1.454619 128.790353 64.999183 147.205691 10.583790 11.007069 4.051249 0.020697 -0.079482 0.009159
